<svg width="167" height="167" viewBox="0 0 167 167" fill="none" xmlns="http://www.w3.org/2000/svg">
<g id="fluent-mdl2:chat-bot">
<path id="Vector" d="M62.625 83.5H52.1875V73.0625H62.625V83.5ZM104.375 83.5H93.9375V73.0625H104.375V83.5ZM146.125 73.0625V93.9375H135.688V120.031C135.688 122.206 135.28 124.244 134.464 126.147C133.649 128.05 132.535 129.708 131.121 131.121C129.708 132.535 128.05 133.649 126.147 134.464C124.244 135.28 122.206 135.688 120.031 135.688H98.5039L62.625 166.348V135.688H36.5312C34.3568 135.688 32.3182 135.28 30.4155 134.464C28.5129 133.649 26.8548 132.535 25.4414 131.121C24.028 129.708 22.9136 128.05 22.0981 126.147C21.2827 124.244 20.875 122.206 20.875 120.031V93.9375H10.4375V73.0625H20.875V57.4063C20.875 55.2318 21.2827 53.1932 22.0981 51.2905C22.9136 49.3879 24.028 47.7298 25.4414 46.3164C26.8548 44.903 28.5129 43.7886 30.4155 42.9732C32.3182 42.1577 34.3568 41.75 36.5312 41.75H73.0625V24.7075C71.486 23.7834 70.2357 22.5059 69.3115 20.875C68.3874 19.2442 67.8981 17.5046 67.8438 15.6563C67.8438 14.1885 68.1156 12.8294 68.6592 11.5791C69.2028 10.3288 69.9367 9.24156 70.8608 8.3174C71.785 7.39325 72.8994 6.63218 74.2041 6.0342C75.5088 5.43622 76.8678 5.16441 78.2812 5.21877C79.749 5.21877 81.1081 5.49058 82.3584 6.0342C83.6087 6.57782 84.696 7.31171 85.6201 8.23586C86.5443 9.16001 87.3053 10.2744 87.9033 11.5791C88.5013 12.8838 88.7731 14.2429 88.7188 15.6563C88.7188 17.5046 88.2567 19.2442 87.3325 20.875C86.4084 22.5059 85.1309 23.7834 83.5 24.7075V41.75H120.031C122.206 41.75 124.244 42.1577 126.147 42.9732C128.05 43.7886 129.708 44.903 131.121 46.3164C132.535 47.7298 133.649 49.3879 134.464 51.2905C135.28 53.1932 135.688 55.2318 135.688 57.4063V73.0625H146.125ZM125.25 57.4063C125.25 55.9929 124.734 54.7697 123.701 53.7368C122.668 52.704 121.445 52.1875 120.031 52.1875H36.5312C35.1178 52.1875 33.8947 52.704 32.8618 53.7368C31.8289 54.7697 31.3125 55.9929 31.3125 57.4063V120.031C31.3125 121.445 31.8289 122.668 32.8618 123.701C33.8947 124.734 35.1178 125.25 36.5312 125.25H73.0625V143.679L94.5898 125.25H120.031C121.445 125.25 122.668 124.734 123.701 123.701C124.734 122.668 125.25 121.445 125.25 120.031V57.4063ZM55.8569 95.0791C58.8468 98.069 62.2716 100.352 66.1313 101.929C69.991 103.505 74.041 104.321 78.2812 104.375C82.5215 104.375 86.5714 103.587 90.4312 102.01C94.2909 100.434 97.7157 98.1234 100.706 95.0791L108.044 102.5C104.076 106.468 99.5368 109.512 94.4268 111.632C89.3167 113.752 83.9349 114.813 78.2812 114.813C72.682 114.813 67.3273 113.752 62.2173 111.632C57.1073 109.512 52.5409 106.468 48.5181 102.5L55.8569 95.0791Z" fill="#FFDC02"/>
</g>
</svg>
