<svg width="51" height="51" viewBox="0 0 51 51" fill="none" xmlns="http://www.w3.org/2000/svg">
<g id="icon-park-outline:link" clip-path="url(#clip0_14_430)">
<path id="Vector" d="M18.0185 17.2747L18.019 32.8885C18.0191 34.663 18.7241 36.3649 19.9789 37.6196C21.2337 38.8744 22.9355 39.5794 24.71 39.5795C25.5888 39.5795 26.4589 39.4065 27.2708 39.0702C28.0826 38.7339 28.8203 38.241 29.4417 37.6196C30.0631 36.9983 30.556 36.2606 30.8922 35.4487C31.2285 34.6369 31.4016 33.7667 31.4016 32.888L31.4021 14.3006C31.4022 13.7147 31.2868 13.1346 31.0626 12.5933C30.8384 12.052 30.5098 11.5601 30.0955 11.1458C29.6812 10.7315 29.1894 10.4029 28.6481 10.1787C28.1068 9.95454 27.5266 9.83918 26.9407 9.83923C26.3548 9.83918 25.7747 9.95454 25.2334 10.1787C24.6921 10.4029 24.2002 10.7315 23.7859 11.1458C23.3716 11.5601 23.043 12.052 22.8188 12.5933C22.5946 13.1346 22.4793 13.7147 22.4793 14.3006L22.4799 32.888C22.4798 33.1809 22.5375 33.471 22.6496 33.7417C22.7617 34.0123 22.926 34.2582 23.1332 34.4654C23.3403 34.6725 23.5862 34.8368 23.8569 34.9489C24.1275 35.061 24.4176 35.1187 24.7106 35.1187C25.302 35.1186 25.8692 34.8836 26.2874 34.4654C26.7056 34.0472 26.9406 33.48 26.9407 32.8885L26.9407 17.2742" stroke="#034381" stroke-width="3" stroke-linecap="round" stroke-linejoin="round"/>
</g>
<defs>
<clipPath id="clip0_14_430">
<rect width="35.6881" height="35.6881" fill="white" transform="translate(0 25.2354) rotate(-45)"/>
</clipPath>
</defs>
</svg>
