<svg width="344" height="413" viewBox="0 0 344 413" fill="none" xmlns="http://www.w3.org/2000/svg">
<path d="M150.798 388.246C65.51 377.585 0.5 304.957 0.5 219.013C0.5 108.147 106.094 27.139 213.662 54.0308C289.468 72.9824 343.5 141.309 343.5 219.442C343.5 321.861 252.436 400.951 150.798 388.246Z" fill="#F5F5F5" stroke="#D9D9D9"/>
<path d="M89.583 166.009H106.066V182.492H89.583V166.009ZM122.55 198.976H106.066V182.492H122.55V198.976ZM139.033 198.976H122.55V215.459H106.066V231.943H89.583V281.393H254.418V231.943H237.934V215.459H221.451V198.976H237.934V182.492H254.418V166.009H237.934V182.492H221.451V198.976H204.967V182.492H139.033V198.976ZM139.033 198.976H204.967V215.459H221.451V231.943H237.934V264.91H106.066V231.943H122.55V215.459H139.033V198.976ZM155.517 231.943H139.033V248.426H155.517V231.943ZM188.484 231.943H204.967V248.426H188.484V231.943Z" fill="#034381"/>
</svg>
