<svg width="146" height="146" viewBox="0 0 146 146" fill="none" xmlns="http://www.w3.org/2000/svg">
<g id="fluent:data-usage-24-regular">
<path id="Vector" d="M111.021 18.2256C115.458 18.2256 119.713 19.9882 122.85 23.1255C125.987 26.2628 127.75 30.518 127.75 34.9548V110.996C127.75 115.433 125.987 119.688 122.85 122.826C119.713 125.963 115.458 127.726 111.021 127.726H34.9792C32.7823 127.726 30.6069 127.293 28.5772 126.452C26.5475 125.611 24.7033 124.379 23.1499 122.826C21.5964 121.272 20.3642 119.428 19.5234 117.398C18.6827 115.369 18.25 113.193 18.25 110.996V34.9548C18.25 30.518 20.0125 26.2628 23.1499 23.1255C26.2872 19.9882 30.5423 18.2256 34.9792 18.2256H111.021ZM111.021 27.3506H34.9792C30.7817 27.3506 27.375 30.7573 27.375 34.9548V110.996C27.375 115.194 30.7817 118.601 34.9792 118.601H111.021C115.218 118.601 118.625 115.194 118.625 110.996V34.9548C118.625 30.7573 115.218 27.3506 111.021 27.3506ZM47.1458 54.75C49.4575 54.75 51.3616 56.4594 51.6658 58.6798L51.7083 59.2942V98.8785C51.7019 100.084 51.2184 101.239 50.3634 102.089C49.5085 102.939 48.3517 103.417 47.1458 103.417C46.046 103.417 44.9831 103.021 44.1525 102.3C43.322 101.579 42.7799 100.582 42.6259 99.4929L42.5833 98.8724V59.2881C42.5833 56.7818 44.6273 54.75 47.1458 54.75ZM98.8542 42.5833C101.166 42.5833 103.076 44.2562 103.374 46.4158L103.417 47.0241V98.9819C103.409 99.5731 103.284 100.157 103.051 100.7C102.817 101.243 102.479 101.735 102.055 102.147C101.632 102.56 101.131 102.885 100.582 103.103C100.032 103.322 99.4454 103.431 98.8542 103.423C97.765 103.434 96.7083 103.052 95.878 102.347C95.0478 101.642 94.4996 100.661 94.3343 99.5842L94.2917 98.9819V47.0181C94.2996 46.4269 94.4239 45.8431 94.6575 45.2999C94.8911 44.7568 95.2294 44.265 95.6531 43.8526C96.0768 43.4402 96.5775 43.1153 97.1268 42.8965C97.676 42.6777 98.263 42.5753 98.8542 42.5833ZM72.8479 72.9756C73.9205 72.9605 74.9624 73.3341 75.7809 74.0274C76.5995 74.7207 77.1394 75.6868 77.3009 76.7473L77.3496 77.3556L77.5625 98.9332C77.5674 100.109 77.1058 101.239 76.279 102.074C75.4523 102.91 74.3278 103.384 73.1521 103.392C72.0795 103.407 71.0376 103.034 70.2191 102.341C69.4005 101.647 68.8606 100.681 68.6991 99.6206L68.6504 99.0184L68.4375 77.4408C68.431 76.2641 68.8919 75.1329 69.7188 74.2957C70.5458 73.4585 71.6712 72.9837 72.8479 72.9756Z" fill="white"/>
</g>
</svg>
