<svg width="35" height="35" viewBox="0 0 35 35" fill="none" xmlns="http://www.w3.org/2000/svg">
<g id="memory:magnify-plus">
<path id="Vector" d="M15.9089 19.0909H12.7271V15.9091H9.54528V12.7273H12.7271V9.54546H15.9089V12.7273H19.0907V15.9091H15.9089M30.2271 31.8182H27.0453V30.2273H25.4544V28.6364H23.8635V27.0455H22.2725V23.8636H19.0907V25.4545H9.54528V23.8636H7.95437V22.2727H6.36346V20.6818H4.77255V19.0909H3.18164V9.54546H4.77255V7.95455H6.36346V6.36364H7.95437V4.77273H9.54528V3.18182H19.0907V4.77273H20.6816V6.36364H22.2725V7.95455H23.8635V9.54546H25.4544V19.0909H23.8635V22.2727H27.0453V23.8636H28.6362V25.4545H30.2271V27.0455H31.818V30.2273H30.2271M17.4998 22.2727V20.6818H20.6816V17.5H22.2725V11.1364H20.6816V7.95455H17.4998V6.36364H11.1362V7.95455H7.95437V11.1364H6.36346V17.5H7.95437V20.6818H11.1362V22.2727H17.4998Z" fill="#034381"/>
</g>
</svg>
