<svg width="159" height="159" viewBox="0 0 159 159" fill="none" xmlns="http://www.w3.org/2000/svg">
<g id="material-symbols-light:military-tech-outline">
<path id="Vector" d="M48.9256 17.0726H110.074V63.9776C110.074 66.3494 109.438 68.5511 108.166 70.5828C106.894 72.6144 105.178 74.2795 103.019 75.578L80.7719 88.9804L85.6678 104.728H104.728L89.0267 115.732L95.1946 135.051L79.4999 123.046L63.7987 135.051L69.9666 115.732L54.2719 104.728H73.3321L78.2279 88.9804L55.7228 75.8298C53.5675 74.6152 51.8958 72.9501 50.7077 70.8345C49.5152 68.7189 48.9189 66.4355 48.9189 63.9843L48.9256 17.0726ZM55.5506 23.6976V63.9776C55.5506 65.2585 55.8686 66.4289 56.5046 67.4889C57.1406 68.5489 58.0107 69.419 59.1148 70.0991L76.1874 80.0896V23.6976H55.5506ZM103.449 23.6976H82.8124V80.0896L99.8851 70.0991C100.989 69.419 101.859 68.5489 102.495 67.4889C103.131 66.4289 103.449 65.2585 103.449 63.9776V23.6976Z" fill="#FFDC02"/>
</g>
</svg>
