<svg width="30" height="30" viewBox="0 0 30 30" fill="none" xmlns="http://www.w3.org/2000/svg">
<g id="memory:eye">
<path id="Vector" d="M17.7274 19.091H12.2729V17.7273H10.9092V12.2728H12.2729V10.9091H17.7274V12.2728H19.091V17.7273H17.7274M20.4547 23.1819H9.54559V21.8182H6.81832V20.4546H4.09104V19.091H2.72741V17.7273H1.36377V12.2728H2.72741V10.9091H4.09104V9.54551H6.81832V8.18187H9.54559V6.81824H20.4547V8.18187H23.182V9.54551H25.9092V10.9091H27.2729V12.2728H28.6365V17.7273H27.2729V19.091H25.9092V20.4546H23.182V21.8182H20.4547M16.3638 16.3637V13.6364H13.6365V16.3637M20.4547 20.4546V19.091H23.182V17.7273H24.5456V16.3637H25.9092V13.6364H24.5456V12.2728H23.182V10.9091H20.4547V9.54551H9.54559V10.9091H6.81832V12.2728H5.45468V13.6364H4.09104V16.3637H5.45468V17.7273H6.81832V19.091H9.54559V20.4546H20.4547Z" fill="#034381"/>
</g>
</svg>
